<svg width="30" height="30" viewBox="0 0 30 30" fill="none" xmlns="http://www.w3.org/2000/svg">
<rect width="30" height="30" rx="15" fill="white"/>
<path d="M25.7663 15.2475C25.7663 14.5233 25.7021 13.8358 25.5921 13.1667H15.2338V17.3008H21.1646C20.8988 18.6575 20.1196 19.8033 18.9646 20.5825V23.3325H22.5029C24.5746 21.4167 25.7663 18.5933 25.7663 15.2475Z" fill="#4285F4"/>
<path d="M15.2338 26C18.2038 26 20.6879 25.01 22.5029 23.3325L18.9646 20.5825C17.9746 21.2425 16.7188 21.6458 15.2338 21.6458C12.3646 21.6458 9.93543 19.7117 9.06459 17.0992H5.41626V19.9317C7.22209 23.525 10.9346 26 15.2338 26Z" fill="#34A853"/>
<path d="M9.0646 17.0992C8.83543 16.4392 8.71626 15.7333 8.71626 15C8.71626 14.2667 8.8446 13.5608 9.0646 12.9008V10.0683H5.41626C4.6646 11.5533 4.23376 13.2217 4.23376 15C4.23376 16.7783 4.6646 18.4467 5.41626 19.9317L9.0646 17.0992Z" fill="#FBBC05"/>
<path d="M15.2338 8.35417C16.8563 8.35417 18.3046 8.91334 19.4504 10.0042L22.5854 6.86917C20.6879 5.09083 18.2038 4 15.2338 4C10.9346 4 7.22209 6.475 5.41626 10.0683L9.06459 12.9008C9.93543 10.2883 12.3646 8.35417 15.2338 8.35417Z" fill="#EA4335"/>
</svg>
