<svg width="30" height="30" viewBox="0 0 30 30" fill="none" xmlns="http://www.w3.org/2000/svg">
<circle cx="15" cy="15" r="15" fill="white"/>
<path d="M15 5.375C10.4435 5.375 6.75 9.06852 6.75 13.625C6.75 15.9024 7.67276 17.9645 9.16519 19.4573C10.658 20.951 14.175 23.1125 14.3813 25.3813C14.4122 25.7214 14.6585 26 15 26C15.3415 26 15.5878 25.7214 15.6187 25.3813C15.825 23.1125 19.342 20.951 20.8348 19.4573C22.3272 17.9645 23.25 15.9024 23.25 13.625C23.25 9.06852 19.5565 5.375 15 5.375Z" fill="#FF4433"/>
<path d="M15 16.5127C16.5948 16.5127 17.8875 15.2199 17.8875 13.6252C17.8875 12.0305 16.5948 10.7377 15 10.7377C13.4053 10.7377 12.1125 12.0305 12.1125 13.6252C12.1125 15.2199 13.4053 16.5127 15 16.5127Z" fill="white"/>
</svg>
