<svg width="30" height="30" viewBox="0 0 30 30" fill="none" xmlns="http://www.w3.org/2000/svg">
<rect width="30" height="30" rx="15" fill="white"/>
<path fill-rule="evenodd" clip-rule="evenodd" d="M15 26C21.05 26 26 21.072 26 15C26 8.928 21.05 4 15 4C8.928 4 4 8.928 4 15C4 21.072 8.928 26 15 26Z" fill="#19AA1E"/>
<path fill-rule="evenodd" clip-rule="evenodd" d="M15 7.74C18.63 7.74 21.094 10.534 21.094 13.548C21.094 14.758 20.83 15.814 20.214 17.134C16.606 17.134 15.946 19.532 15.792 21.138L15.682 22.26H14.318L14.208 21.138C14.054 19.532 13.394 17.134 9.78601 17.134C9.17001 15.814 8.90601 14.758 8.90601 13.548C8.90601 10.534 11.37 7.74 15 7.74Z" fill="white"/>
</svg>
