<svg width="30" height="30" viewBox="0 0 30 30" fill="none" xmlns="http://www.w3.org/2000/svg">
<circle cx="15" cy="15" r="15" fill="white"/>
<g clip-path="url(#clip0_3_136)">
<path fill-rule="evenodd" clip-rule="evenodd" d="M25.1082 25.5113C26.4268 25.8897 24.7306 21.1883 24.7306 21.1883C25.4859 18.9297 26.2339 11.2187 25.7646 8.86833C25.2952 6.51727 23.5352 6.59867 20.3012 5.95553C17.0093 5.29553 8.72998 4.91787 6.93331 5.01467C5.14765 5.1078 3.83498 6.32733 4.01831 8.77667C4.20678 11.2187 7.07118 20.3193 8.49165 22.578C9.90698 24.8367 11.9992 24.4421 13.2473 24.2911C14.9589 24.0799 21.402 22.578 21.402 22.578C20.8256 21.8373 23.7897 25.1329 25.1075 25.5113H25.1082ZM16.4666 11.2993L17.6136 8.86173H21.0456L17.2938 16.0059V20.2152H13.3558V16.0059L11.2585 12.0121L9.59898 8.86173H13.031L15.3219 13.7201L16.4666 11.2993Z" fill="#F5434C"/>
</g>
<defs>
<clipPath id="clip0_3_136">
<rect width="22" height="20.5333" fill="white" transform="translate(4 5)"/>
</clipPath>
</defs>
</svg>
